<?xml version="1.0" standalone="no"?>
<!DOCTYPE svg PUBLIC "-//W3C//DTD SVG 20010904//EN"
 "http://www.w3.org/TR/2001/REC-SVG-20010904/DTD/svg10.dtd">
<svg version="1.0" xmlns="http://www.w3.org/2000/svg"
 width="4726.000000pt" height="2682.000000pt" viewBox="0 0 4726.000000 2682.000000"
 preserveAspectRatio="xMidYMid meet">

<g transform="translate(0.000000,2682.000000) scale(0.100000,-0.100000)"
fill="#000000" stroke="none">
<path d="M15580 26816 c0 -4 605 -1037 676 -1154 24 -40 44 -75 44 -78 0 -3
16 -30 35 -60 19 -30 35 -62 35 -72 0 -9 -19 -42 -43 -72 -24 -30 -223 -293
-442 -585 -219 -291 -501 -665 -625 -830 -124 -165 -372 -493 -550 -730 -178
-236 -439 -583 -581 -771 -247 -328 -538 -715 -1159 -1539 -162 -214 -402
-534 -535 -710 -133 -176 -399 -529 -591 -785 -193 -256 -366 -485 -385 -510
-28 -37 -45 -83 -88 -230 -29 -102 -61 -212 -71 -245 -10 -33 -26 -87 -36
-120 -9 -33 -23 -80 -30 -105 -7 -25 -45 -155 -84 -290 -39 -135 -82 -283 -96
-330 -14 -47 -32 -110 -41 -140 -8 -30 -19 -66 -23 -80 -5 -14 -45 -153 -90
-310 -45 -157 -85 -293 -91 -302 -5 -10 -9 -22 -9 -28 0 -7 1118 -10 3426 -10
2737 0 3425 -3 3421 -12 -2 -7 -21 -74 -41 -148 -20 -74 -40 -148 -45 -165 -5
-16 -21 -77 -36 -135 -27 -102 -96 -360 -115 -430 -6 -19 -21 -75 -34 -125
-13 -49 -47 -178 -76 -285 -29 -107 -70 -260 -91 -340 -22 -80 -43 -158 -48
-175 -5 -16 -21 -77 -36 -135 -36 -136 -103 -387 -114 -425 -5 -16 -21 -77
-36 -135 -29 -110 -72 -273 -81 -302 -5 -17 248 -18 5210 -18 l5216 0 0 1778
0 1777 -129 18 c-522 73 -1152 260 -1432 427 -232 138 -342 343 -311 584 56
447 507 1131 1282 1944 267 280 416 419 539 502 l50 35 1 76 0 76 -132 -1
c-120 0 -144 3 -248 31 -484 134 -1210 370 -1380 450 -41 19 -101 41 -133 49
-109 26 -480 194 -665 301 -60 35 -337 220 -467 312 l-100 71 -6 -98 c-13
-207 -99 -429 -274 -712 -123 -198 -348 -468 -541 -651 -190 -178 -355 -244
-481 -189 -62 26 -101 67 -241 247 -297 383 -396 553 -632 1088 -143 326 -150
337 -375 565 -105 107 -264 273 -353 367 -147 156 -162 176 -162 208 0 65 70
60 152 -11 84 -73 194 -130 171 -90 -4 8 -53 64 -108 126 -114 128 -137 160
-154 212 -15 46 -7 78 21 78 39 0 87 -32 190 -127 98 -90 154 -130 165 -119
11 11 -64 130 -149 237 -120 151 -139 197 -98 234 41 37 101 -5 233 -168 87
-108 143 -167 157 -167 20 0 -43 137 -120 258 -36 56 -46 130 -22 154 22 22
81 -19 127 -87 114 -172 326 -474 340 -485 15 -13 16 -7 10 56 -4 42 -3 85 4
112 10 37 15 42 41 42 55 0 124 -82 159 -190 28 -89 42 -188 51 -360 10 -211
29 -302 85 -409 43 -81 142 -207 216 -275 120 -110 335 -325 388 -391 75 -91
133 -178 187 -279 30 -55 44 -74 44 -57 0 37 -27 132 -60 210 -61 144 -60 211
11 428 47 146 120 294 185 378 69 90 83 129 95 257 12 139 28 198 87 312 102
198 245 289 407 257 27 -5 52 -8 53 -6 2 2 -34 16 -80 30 -102 33 -220 37
-318 11 -35 -10 -144 -59 -242 -109 -169 -87 -181 -92 -251 -95 -65 -4 -80 -1
-128 23 -30 15 -80 55 -112 88 -60 62 -163 208 -186 263 -12 30 -17 32 -76 39
-110 11 -125 34 -150 224 -25 188 -43 236 -102 272 -133 81 -259 264 -309 449
-26 98 -24 272 5 375 130 462 635 783 1127 714 373 -52 735 -341 858 -686 36
-102 52 -167 81 -338 37 -216 78 -326 115 -310 8 3 44 42 80 87 155 192 344
315 600 389 l115 34 -117 3 -117 3 6 32 c46 238 214 477 485 688 51 40 210
150 353 244 143 95 294 198 335 229 95 74 160 106 224 113 31 3 119 -5 223
-21 94 -14 270 -35 390 -47 186 -17 378 -47 486 -74 l27 -7 0 81 0 80 -42 11
c-111 29 -194 52 -208 57 -25 10 58 22 158 22 l92 1 0 330 0 330 -5870 0
c-3228 0 -5870 -2 -5870 -4z m4060 -2508 c-12 -46 -30 -114 -40 -153 -10 -38
-33 -124 -50 -190 -17 -66 -40 -151 -50 -190 -10 -38 -33 -124 -50 -190 -17
-66 -40 -151 -50 -190 -10 -38 -33 -124 -50 -190 -17 -66 -40 -151 -50 -190
-10 -38 -33 -124 -50 -190 -17 -66 -40 -151 -50 -190 -10 -38 -33 -124 -50
-190 -17 -66 -40 -151 -50 -190 -10 -38 -33 -124 -50 -190 -17 -66 -40 -151
-50 -190 -10 -38 -33 -124 -50 -190 -17 -66 -40 -151 -50 -190 -10 -38 -33
-124 -50 -190 -17 -66 -40 -151 -50 -190 -10 -38 -33 -124 -50 -190 -17 -66
-40 -151 -50 -190 -10 -38 -33 -124 -50 -190 -17 -66 -40 -151 -50 -190 -10
-38 -33 -124 -50 -190 -17 -66 -40 -151 -50 -190 -10 -38 -33 -124 -50 -190
-17 -66 -40 -151 -50 -190 -10 -38 -33 -124 -50 -190 -29 -112 -58 -220 -81
-307 l-10 -38 -1314 0 c-723 0 -1315 3 -1315 6 0 7 56 82 462 619 277 367 610
809 913 1210 120 160 294 389 385 510 185 245 472 625 774 1025 110 146 281
373 381 505 100 132 265 350 366 485 102 135 290 384 418 553 327 434 323 429
328 423 3 -2 -5 -42 -17 -88z"/>
<path d="M26291 25356 c2 -2 32 -25 67 -51 l63 -46 -36 -67 c-62 -113 -164
-238 -396 -482 -233 -247 -332 -362 -387 -454 -37 -60 -83 -168 -76 -175 8 -9
106 93 140 147 43 64 59 66 157 15 237 -125 1042 -706 1387 -1002 l105 -90 3
146 c1 81 0 153 -2 160 -3 8 -24 13 -53 14 -86 1 -99 10 -392 267 l-26 23 238
-6 237 -5 0 700 c0 553 -3 700 -12 700 -50 0 -397 46 -500 66 -120 23 -325 79
-452 123 -59 21 -73 25 -65 17z"/>
<path d="M27300 18860 c-25 -14 -129 -38 -298 -70 -89 -17 -193 -42 -233 -56
-67 -24 -213 -103 -205 -111 2 -2 39 10 82 26 139 51 222 64 358 58 82 -3 152
-13 216 -30 52 -14 96 -24 98 -22 1 1 1 50 0 108 -3 90 -5 104 -18 97z"/>
<path d="M1083 12053 c2 -5 108 -181 235 -393 l231 -385 -740 -2780 c-407
-1529 -753 -2831 -770 -2894 -56 -215 -49 -368 22 -510 62 -125 162 -208 309
-257 51 -18 115 -19 970 -24 l915 -5 115 -440 115 -440 1238 -3 c680 -1 1237
0 1237 2 0 2 -124 195 -275 429 -151 235 -278 433 -281 442 -5 13 36 15 384
15 498 0 600 14 789 104 129 63 204 116 308 221 98 98 162 197 215 328 17 43
213 767 435 1610 459 1744 691 2621 905 3417 81 305 153 580 159 610 30 160
21 344 -24 488 -59 187 -214 347 -403 419 -150 56 32 53 -3153 53 -1617 0
-2938 -3 -2936 -7z m3873 -1376 c16 -19 24 -40 24 -67 0 -35 -297 -1181 -524
-2020 -233 -865 -405 -1504 -501 -1870 -63 -237 -118 -425 -132 -452 -27 -50
-77 -91 -134 -110 -41 -14 -1019 -24 -1019 -11 0 27 373 1450 905 3451 130
491 235 899 232 905 -3 7 -98 55 -211 107 -113 51 -206 95 -206 97 0 2 347 2
771 1 l771 -3 24 -28z"/>
<path d="M26782 12052 c2 -4 90 -181 197 -392 l194 -383 -157 -586 c-86 -322
-159 -596 -162 -608 l-6 -23 -262 0 -261 0 -131 -537 -130 -538 243 -3 c217
-2 243 -4 243 -19 0 -9 -219 -840 -486 -1847 l-486 -1831 4 -91 c8 -150 73
-257 196 -322 122 -65 16 -62 1887 -62 l1700 0 120 477 c66 262 121 482 123
489 3 11 -142 14 -785 16 -774 3 -789 3 -823 24 -39 23 -80 77 -80 106 0 20
807 3036 816 3050 3 5 335 8 739 8 l734 0 11 38 c6 20 71 262 144 537 l133
500 -738 3 c-550 1 -739 5 -739 14 0 9 498 1913 516 1971 5 16 -65 17 -1376
17 -760 0 -1380 -4 -1378 -8z"/>
<path d="M37764 11673 c108 -213 196 -392 196 -399 0 -7 -68 -266 -151 -576
-82 -310 -154 -580 -160 -600 l-10 -38 -262 -2 -262 -3 -127 -520 c-70 -286
-127 -528 -127 -537 -1 -17 17 -18 245 -18 229 0 245 -1 240 -17 -3 -10 -224
-841 -491 -1846 -411 -1550 -485 -1838 -485 -1895 0 -206 112 -342 325 -397
52 -13 270 -15 1760 -15 l1700 0 119 473 c66 259 122 480 124 489 4 16 -44 18
-784 20 -768 3 -790 4 -823 23 -52 31 -76 69 -74 118 1 23 183 717 405 1542
l404 1500 739 5 738 5 143 535 c79 294 144 536 144 538 0 1 -333 2 -740 2
-468 0 -740 4 -740 10 0 7 496 1902 516 1973 5 16 -65 17 -1376 17 l-1381 0
195 -387z"/>
<path d="M8415 10048 c-5 -14 -1369 -5164 -1381 -5211 l-6 -27 2268 2 2269 3
70 23 c187 59 339 155 496 312 171 171 301 383 384 625 19 57 1068 4005 1130
4258 l7 27 -1083 -2 -1084 -3 -522 -2010 c-287 -1105 -525 -2020 -528 -2033
-9 -37 -71 -98 -113 -110 -27 -8 -167 -12 -456 -12 -393 0 -417 1 -412 18 3 9
251 940 551 2067 300 1128 548 2058 551 2068 5 16 -50 17 -1066 17 -847 0
-1072 -3 -1075 -12z"/>
<path d="M14457 9543 c-76 -285 -141 -528 -144 -540 l-5 -23 1491 0 c1267 0
1497 -2 1526 -14 35 -15 65 -59 65 -98 0 -13 -50 -209 -112 -435 l-112 -413
-1247 0 c-1072 0 -1259 -2 -1335 -15 -312 -54 -530 -211 -649 -468 -23 -51
-115 -373 -292 -1028 l-258 -954 0 -170 c0 -154 3 -175 24 -228 50 -126 165
-237 298 -287 32 -12 99 -31 148 -41 86 -18 170 -19 2031 -19 1692 0 1953 2
2029 15 335 59 608 311 734 680 41 120 927 3483 945 3588 61 350 -8 651 -184
810 -57 52 -161 108 -245 133 -57 18 -171 19 -2315 21 l-2255 3 -138 -517z
m2439 -2520 c-3 -10 -68 -253 -145 -541 -78 -287 -150 -540 -160 -561 -30 -58
-81 -98 -144 -111 -35 -7 -168 -10 -385 -8 -317 3 -332 4 -359 24 -49 36 -73
82 -73 136 0 56 211 871 240 928 31 61 81 99 161 125 73 24 80 24 472 25 375
0 398 -1 393 -17z"/>
<path d="M20845 10048 c-7 -21 -1455 -5228 -1455 -5233 0 -3 480 -5 1068 -5
l1067 0 580 2085 579 2086 426 -3 c481 -3 468 -1 488 -78 10 -39 4 -65 -75
-337 -46 -162 -83 -296 -81 -298 2 -2 500 56 1106 128 874 105 1105 135 1112
147 12 24 137 467 157 560 14 65 18 127 18 265 -1 168 -3 185 -28 260 -68 205
-216 352 -412 411 -57 18 -171 19 -2303 21 -1803 3 -2243 1 -2247 -9z"/>
<path d="M32032 10049 c-315 -41 -564 -224 -717 -529 -21 -41 -46 -100 -57
-130 -35 -102 -957 -3604 -968 -3675 -5 -38 -10 -116 -10 -171 0 -314 120
-558 330 -668 134 -70 -46 -66 2448 -66 1238 0 2252 3 2252 6 0 3 61 236 134
517 74 282 138 524 141 539 l7 27 -1489 -6 c-1150 -5 -1496 -3 -1525 6 -37 12
-68 57 -68 100 0 15 229 862 276 1024 5 16 88 17 1560 17 855 0 1554 3 1554 6
0 3 182 680 405 1505 223 824 405 1501 405 1504 0 8 -4610 3 -4678 -6z m2237
-996 c0 -5 -62 -240 -137 -523 l-137 -515 -468 -3 c-423 -2 -467 -1 -467 14 0
9 50 206 111 437 114 432 145 521 196 554 61 40 86 42 501 43 221 0 402 -3
401 -7z"/>
<path d="M42755 10045 c-281 -62 -538 -278 -665 -559 -17 -36 -245 -873 -546
-2002 l-517 -1939 -5 -120 c-5 -146 7 -218 53 -311 65 -133 196 -228 377 -277
l83 -22 1995 0 1995 0 85 23 c303 80 537 298 663 617 45 113 952 3580 974
3720 10 68 13 137 10 215 -16 342 -170 562 -452 647 -57 17 -170 18 -2025 20
-1606 1 -1976 -1 -2025 -12z m2301 -1018 c13 -16 24 -41 24 -57 0 -15 -59
-225 -131 -467 -189 -635 -393 -1377 -530 -1933 -124 -504 -152 -590 -205
-627 -64 -45 -91 -48 -444 -48 -333 0 -335 0 -372 23 -50 31 -78 68 -78 104 0
52 759 2859 785 2903 13 22 39 55 58 73 63 61 72 62 490 59 l379 -2 24 -28z"/>
<path d="M23188 3817 l-477 -192 295 -3 295 -2 622 185 c342 102 631 190 642
195 12 5 -157 9 -440 8 l-460 0 -477 -191z"/>
<path d="M7830 3446 c0 -3 50 -85 110 -184 61 -98 110 -184 110 -191 0 -9
-691 -2635 -800 -3039 l-8 -32 587 0 587 0 199 745 198 745 734 0 c403 0 733
2 733 5 0 2 32 119 70 260 39 141 70 260 70 265 0 6 -267 10 -730 10 -540 0
-730 3 -730 11 0 7 38 157 85 335 47 178 85 326 85 329 0 3 -44 27 -97 54
l-98 50 853 0 c468 1 852 3 852 5 0 2 36 141 80 309 44 167 80 309 80 316 0 8
-385 11 -1485 11 -817 0 -1485 -2 -1485 -4z"/>
<path d="M11642 3418 c12 -18 71 -100 130 -181 60 -82 106 -152 104 -155 -48
-84 -1782 -3044 -1792 -3059 l-14 -23 583 0 584 0 204 385 204 385 333 0 332
0 0 -385 0 -385 535 0 535 0 0 58 c0 87 -109 3193 -116 3300 l-6 92 -820 0
-819 0 23 -32z m668 -1748 l0 -340 -180 0 c-99 0 -180 2 -180 5 0 8 353 675
357 675 1 0 3 -153 3 -340z"/>
<path d="M14233 3438 c2 -7 51 -89 107 -183 57 -93 103 -179 102 -190 -1 -11
-184 -704 -406 -1540 l-403 -1520 585 -3 c322 -1 587 0 590 3 3 2 156 575 342
1272 185 697 339 1275 343 1283 3 8 4 -16 1 -55 -2 -38 -36 -590 -74 -1225
-38 -635 -72 -1183 -76 -1218 l-6 -62 848 2 849 3 447 1690 c246 930 450 1705
454 1723 l6 32 -589 0 -589 0 -339 -1285 c-186 -706 -340 -1283 -342 -1281 -2
2 30 560 72 1241 41 680 75 1257 75 1281 l0 44 -1001 0 c-797 0 -1000 -3 -996
-12z"/>
<path d="M18195 3438 c-17 -50 -161 -615 -158 -620 2 -5 229 -8 505 -8 l500 0
-6 -32 c-4 -18 -147 -565 -319 -1216 l-312 -1182 -173 -188 -173 -187 708 -3
c389 -1 710 1 713 5 4 5 173 637 375 1406 l369 1397 477 0 c263 0 480 3 483 8
4 7 166 618 166 627 0 3 -709 5 -1575 5 -1252 0 -1577 -3 -1580 -12z"/>
<path d="M22220 3444 c0 -3 51 -76 114 -162 62 -86 119 -166 126 -178 11 -18
-76 -172 -889 -1558 -495 -846 -901 -1539 -901 -1542 0 -2 262 -3 582 -2 l582
3 201 380 202 380 332 3 331 2 0 -385 0 -385 541 0 540 0 -6 118 c-8 152 -115
3199 -115 3275 l0 57 -820 0 c-451 0 -820 -3 -820 -6z m687 -2111 c-2 -2 -85
-2 -185 -1 l-180 3 181 345 182 345 3 -344 c1 -189 1 -346 -1 -348z"/>
<path d="M24810 3430 c6 -11 56 -95 111 -186 l100 -166 -206 -777 c-113 -427
-208 -784 -211 -793 -5 -17 40 -18 855 -18 474 0 861 -3 861 -8 0 -4 -47 -183
-105 -397 -96 -361 -106 -392 -135 -417 l-30 -28 -245 0 c-146 0 -245 4 -245
9 0 18 31 145 76 309 24 90 44 168 44 173 0 5 -228 9 -584 9 -548 0 -585 -1
-590 -17 -5 -16 -163 -607 -202 -753 -28 -106 -14 -210 38 -280 12 -17 47 -43
78 -58 l55 -27 1135 -3 c812 -2 1154 1 1203 9 146 24 293 132 355 260 22 44
101 329 252 898 121 458 220 839 220 847 0 12 -130 14 -860 14 -473 0 -860 4
-860 9 0 4 24 95 54 202 67 240 126 458 126 465 0 2 -46 26 -102 53 l-103 49
358 1 c215 1 366 -3 376 -9 10 -5 21 -17 25 -26 3 -9 -14 -93 -39 -188 -25
-95 -45 -178 -45 -184 0 -9 140 -12 587 -10 l586 3 78 292 c85 324 95 379 80
472 -20 125 -92 220 -199 263 l-57 23 -1423 3 -1423 2 11 -20z"/>
<path d="M28261 3413 c-95 -363 -151 -580 -151 -590 0 -10 106 -13 506 -13
477 0 505 -1 500 -17 -8 -26 -636 -2405 -636 -2410 0 -3 -208 -230 -309 -336
l-45 -47 715 0 715 0 370 1402 370 1403 482 3 c265 1 482 4 482 7 0 2 36 141
80 309 44 167 80 309 80 315 0 8 -440 11 -1575 11 l-1574 0 -10 -37z"/>
<path d="M31790 3268 c61 -101 110 -189 110 -197 0 -10 -782 -2971 -806 -3053
-5 -17 27 -18 583 -18 l588 0 454 1713 c250 941 456 1718 458 1725 4 9 -150
12 -746 12 l-750 0 109 -182z"/>
<path d="M33502 3318 c45 -73 96 -158 114 -188 l34 -55 -366 -1365 c-328
-1222 -366 -1373 -367 -1445 -1 -67 3 -88 24 -130 32 -62 92 -110 159 -124 35
-8 398 -11 1168 -11 1230 0 1195 -1 1314 62 80 42 165 127 205 203 22 43 71
211 172 593 78 293 141 535 141 537 0 3 -265 5 -590 5 l-589 0 -10 -37 c-186
-716 -177 -687 -230 -705 -35 -11 -501 -25 -501 -15 0 3 119 456 264 1008 146
552 268 1016 272 1032 6 26 3 29 -97 76 l-104 49 360 1 c311 1 364 -1 383 -15
12 -8 22 -22 22 -30 0 -8 -31 -133 -70 -279 -38 -146 -70 -269 -70 -275 0 -7
196 -10 588 -10 l588 0 104 398 c118 450 126 505 91 619 -34 114 -118 191
-240 219 -45 11 -326 14 -1453 14 l-1398 0 82 -132z"/>
<path d="M36890 3445 c0 -2 50 -85 111 -184 l110 -181 -226 -852 c-125 -469
-289 -1089 -366 -1378 -160 -597 -163 -617 -112 -718 17 -34 42 -66 62 -80 82
-54 44 -52 1261 -52 1094 0 1129 1 1205 20 95 24 152 56 227 128 97 92 106
119 308 887 100 380 258 978 352 1330 159 595 171 646 170 725 -1 135 -47 237
-135 295 -104 68 -21 65 -1569 65 -769 0 -1398 -2 -1398 -5z m1838 -647 c25
-25 38 27 -319 -1313 -110 -412 -205 -763 -211 -778 -6 -15 -22 -37 -36 -47
-23 -19 -41 -20 -268 -20 -227 0 -244 1 -244 18 0 9 18 87 39 172 37 144 486
1835 497 1871 3 12 -20 27 -98 62 l-103 47 366 0 c271 0 368 -3 377 -12z"/>
</g>
</svg>
